<mxfile host="app.diagrams.net" modified="2022-03-29T02:42:47.663Z" agent="5.0 (Windows)" etag="j2AAP8yySw55tHAi0Sjm" version="17.2.4" type="github">
  <diagram id="3SiN47Ni4QpDsCbn2Azd" name="Page-1">
    <mxGraphModel dx="1038" dy="564" grid="1" gridSize="10" guides="1" tooltips="1" connect="1" arrows="1" fold="1" page="1" pageScale="1" pageWidth="850" pageHeight="1100" math="0" shadow="0">
      <root>
        <mxCell id="0" />
        <mxCell id="1" parent="0" />
        <mxCell id="KKgUo3WRALdvams5kwet-1" value="VeAssetDepositor" style="swimlane;fontStyle=2;align=center;verticalAlign=top;childLayout=stackLayout;horizontal=1;startSize=26;horizontalStack=0;resizeParent=1;resizeLast=0;collapsible=1;marginBottom=0;rounded=0;shadow=0;strokeWidth=1;" vertex="1" parent="1">
          <mxGeometry x="50" y="80" width="190" height="470" as="geometry">
            <mxRectangle x="230" y="140" width="160" height="26" as="alternateBounds" />
          </mxGeometry>
        </mxCell>
        <mxCell id="KKgUo3WRALdvams5kwet-2" value="staker (proxy)" style="text;align=left;verticalAlign=top;spacingLeft=4;spacingRight=4;overflow=hidden;rotatable=0;points=[[0,0.5],[1,0.5]];portConstraint=eastwest;" vertex="1" parent="KKgUo3WRALdvams5kwet-1">
          <mxGeometry y="26" width="190" height="26" as="geometry" />
        </mxCell>
        <mxCell id="KKgUo3WRALdvams5kwet-3" value="minter (ve3Token)" style="text;align=left;verticalAlign=top;spacingLeft=4;spacingRight=4;overflow=hidden;rotatable=0;points=[[0,0.5],[1,0.5]];portConstraint=eastwest;rounded=0;shadow=0;html=0;" vertex="1" parent="KKgUo3WRALdvams5kwet-1">
          <mxGeometry y="52" width="190" height="26" as="geometry" />
        </mxCell>
        <mxCell id="KKgUo3WRALdvams5kwet-4" value="veAsset (crv, puckle...)" style="text;align=left;verticalAlign=top;spacingLeft=4;spacingRight=4;overflow=hidden;rotatable=0;points=[[0,0.5],[1,0.5]];portConstraint=eastwest;rounded=0;shadow=0;html=0;" vertex="1" parent="KKgUo3WRALdvams5kwet-1">
          <mxGeometry y="78" width="190" height="26" as="geometry" />
        </mxCell>
        <mxCell id="KKgUo3WRALdvams5kwet-5" value="escrow (veCrv, veDill..)" style="text;align=left;verticalAlign=top;spacingLeft=4;spacingRight=4;overflow=hidden;rotatable=0;points=[[0,0.5],[1,0.5]];portConstraint=eastwest;rounded=0;shadow=0;html=0;" vertex="1" parent="KKgUo3WRALdvams5kwet-1">
          <mxGeometry y="104" width="190" height="26" as="geometry" />
        </mxCell>
        <mxCell id="KKgUo3WRALdvams5kwet-6" value="" style="line;html=1;strokeWidth=1;align=left;verticalAlign=middle;spacingTop=-1;spacingLeft=3;spacingRight=3;rotatable=0;labelPosition=right;points=[];portConstraint=eastwest;" vertex="1" parent="KKgUo3WRALdvams5kwet-1">
          <mxGeometry y="130" width="190" height="8" as="geometry" />
        </mxCell>
        <mxCell id="KKgUo3WRALdvams5kwet-7" value="configuration functions" style="text;whiteSpace=wrap;html=1;fontStyle=1" vertex="1" parent="KKgUo3WRALdvams5kwet-1">
          <mxGeometry y="138" width="190" height="32" as="geometry" />
        </mxCell>
        <mxCell id="KKgUo3WRALdvams5kwet-8" value="setFees (set the fee value to incentive lock users who call function lockVeAsset )" style="text;whiteSpace=wrap;html=1;" vertex="1" parent="KKgUo3WRALdvams5kwet-1">
          <mxGeometry y="170" width="190" height="62" as="geometry" />
        </mxCell>
        <mxCell id="KKgUo3WRALdvams5kwet-9" value="initialLock (for lock initial veAsset amount in the escrow contract via voter proxy contrac in order to let user deposit veasst)" style="text;whiteSpace=wrap;html=1;" vertex="1" parent="KKgUo3WRALdvams5kwet-1">
          <mxGeometry y="232" width="190" height="78" as="geometry" />
        </mxCell>
        <mxCell id="KKgUo3WRALdvams5kwet-10" value="user functions" style="text;whiteSpace=wrap;html=1;fontStyle=1" vertex="1" parent="KKgUo3WRALdvams5kwet-1">
          <mxGeometry y="310" width="190" height="28" as="geometry" />
        </mxCell>
        <mxCell id="KKgUo3WRALdvams5kwet-11" value="lockVeAsset (lock the amount of veAsset deposited&amp;nbsp; in the escrow contractvia voter proxy contrac)" style="text;whiteSpace=wrap;html=1;" vertex="1" parent="KKgUo3WRALdvams5kwet-1">
          <mxGeometry y="338" width="190" height="72" as="geometry" />
        </mxCell>
        <mxCell id="KKgUo3WRALdvams5kwet-12" value="deposit (deposit veAsset and get ve3Toke, it can be staked in ve3Token reward pool )" style="text;whiteSpace=wrap;html=1;" vertex="1" parent="KKgUo3WRALdvams5kwet-1">
          <mxGeometry y="410" width="190" height="60" as="geometry" />
        </mxCell>
        <mxCell id="KKgUo3WRALdvams5kwet-13" value="" style="edgeStyle=orthogonalEdgeStyle;rounded=0;orthogonalLoop=1;jettySize=auto;html=1;" edge="1" parent="1" source="KKgUo3WRALdvams5kwet-15" target="KKgUo3WRALdvams5kwet-64">
          <mxGeometry relative="1" as="geometry">
            <Array as="points">
              <mxPoint x="270" y="1530" />
              <mxPoint x="120" y="1530" />
            </Array>
          </mxGeometry>
        </mxCell>
        <mxCell id="KKgUo3WRALdvams5kwet-14" style="edgeStyle=orthogonalEdgeStyle;rounded=0;orthogonalLoop=1;jettySize=auto;html=1;entryX=0.5;entryY=0;entryDx=0;entryDy=0;" edge="1" parent="1" source="KKgUo3WRALdvams5kwet-15" target="KKgUo3WRALdvams5kwet-69">
          <mxGeometry relative="1" as="geometry">
            <Array as="points">
              <mxPoint x="270" y="1530" />
              <mxPoint x="440" y="1530" />
            </Array>
          </mxGeometry>
        </mxCell>
        <mxCell id="KKgUo3WRALdvams5kwet-15" value="VoterProxy" style="swimlane;fontStyle=0;align=center;verticalAlign=top;childLayout=stackLayout;horizontal=1;startSize=26;horizontalStack=0;resizeParent=1;resizeLast=0;collapsible=1;marginBottom=0;rounded=0;shadow=0;strokeWidth=1;" vertex="1" parent="1">
          <mxGeometry x="170" y="826" width="200" height="614" as="geometry">
            <mxRectangle x="130" y="380" width="160" height="26" as="alternateBounds" />
          </mxGeometry>
        </mxCell>
        <mxCell id="KKgUo3WRALdvams5kwet-16" value="veAsset" style="text;align=left;verticalAlign=top;spacingLeft=4;spacingRight=4;overflow=hidden;rotatable=0;points=[[0,0.5],[1,0.5]];portConstraint=eastwest;" vertex="1" parent="KKgUo3WRALdvams5kwet-15">
          <mxGeometry y="26" width="200" height="26" as="geometry" />
        </mxCell>
        <mxCell id="KKgUo3WRALdvams5kwet-17" value="escrow" style="text;align=left;verticalAlign=top;spacingLeft=4;spacingRight=4;overflow=hidden;rotatable=0;points=[[0,0.5],[1,0.5]];portConstraint=eastwest;rounded=0;shadow=0;html=0;" vertex="1" parent="KKgUo3WRALdvams5kwet-15">
          <mxGeometry y="52" width="200" height="26" as="geometry" />
        </mxCell>
        <mxCell id="KKgUo3WRALdvams5kwet-18" value="gaugeProxy (abstract gague)" style="text;align=left;verticalAlign=top;spacingLeft=4;spacingRight=4;overflow=hidden;rotatable=0;points=[[0,0.5],[1,0.5]];portConstraint=eastwest;rounded=0;shadow=0;html=0;" vertex="1" parent="KKgUo3WRALdvams5kwet-15">
          <mxGeometry y="78" width="200" height="26" as="geometry" />
        </mxCell>
        <mxCell id="KKgUo3WRALdvams5kwet-19" value="" style="line;html=1;strokeWidth=1;align=left;verticalAlign=middle;spacingTop=-1;spacingLeft=3;spacingRight=3;rotatable=0;labelPosition=right;points=[];portConstraint=eastwest;" vertex="1" parent="KKgUo3WRALdvams5kwet-15">
          <mxGeometry y="104" width="200" height="8" as="geometry" />
        </mxCell>
        <mxCell id="KKgUo3WRALdvams5kwet-20" value="configuration functions" style="text;align=left;verticalAlign=top;spacingLeft=4;spacingRight=4;overflow=hidden;rotatable=0;points=[[0,0.5],[1,0.5]];portConstraint=eastwest;fontStyle=1" vertex="1" parent="KKgUo3WRALdvams5kwet-15">
          <mxGeometry y="112" width="200" height="26" as="geometry" />
        </mxCell>
        <mxCell id="KKgUo3WRALdvams5kwet-21" value="setOperator (set booster &#xa;contract as operator)" style="text;align=left;verticalAlign=top;spacingLeft=4;spacingRight=4;overflow=hidden;rotatable=0;points=[[0,0.5],[1,0.5]];portConstraint=eastwest;" vertex="1" parent="KKgUo3WRALdvams5kwet-15">
          <mxGeometry y="138" width="200" height="42" as="geometry" />
        </mxCell>
        <mxCell id="KKgUo3WRALdvams5kwet-22" value="setDepositer (set depostier &#xa;contract as the depositer for veAsset)" style="text;align=left;verticalAlign=top;spacingLeft=4;spacingRight=4;overflow=hidden;rotatable=0;points=[[0,0.5],[1,0.5]];portConstraint=eastwest;" vertex="1" parent="KKgUo3WRALdvams5kwet-15">
          <mxGeometry y="180" width="200" height="42" as="geometry" />
        </mxCell>
        <mxCell id="KKgUo3WRALdvams5kwet-23" value="Operator function (booster)" style="text;align=left;verticalAlign=top;spacingLeft=4;spacingRight=4;overflow=hidden;rotatable=0;points=[[0,0.5],[1,0.5]];portConstraint=eastwest;fontStyle=1" vertex="1" parent="KKgUo3WRALdvams5kwet-15">
          <mxGeometry y="222" width="200" height="42" as="geometry" />
        </mxCell>
        <mxCell id="KKgUo3WRALdvams5kwet-24" value="deposit (deposit lp token to gagues)" style="text;align=left;verticalAlign=top;spacingLeft=4;spacingRight=4;overflow=hidden;rotatable=0;points=[[0,0.5],[1,0.5]];portConstraint=eastwest;fontStyle=0" vertex="1" parent="KKgUo3WRALdvams5kwet-15">
          <mxGeometry y="264" width="200" height="42" as="geometry" />
        </mxCell>
        <mxCell id="KKgUo3WRALdvams5kwet-25" value="withdraw (withdraw lp token from &#xa;gagues)" style="text;align=left;verticalAlign=top;spacingLeft=4;spacingRight=4;overflow=hidden;rotatable=0;points=[[0,0.5],[1,0.5]];portConstraint=eastwest;fontStyle=0" vertex="1" parent="KKgUo3WRALdvams5kwet-15">
          <mxGeometry y="306" width="200" height="44" as="geometry" />
        </mxCell>
        <mxCell id="KKgUo3WRALdvams5kwet-26" value="claimVeAsset (claim rewards from&#xa; gauges)" style="text;align=left;verticalAlign=top;spacingLeft=4;spacingRight=4;overflow=hidden;rotatable=0;points=[[0,0.5],[1,0.5]];portConstraint=eastwest;fontStyle=0" vertex="1" parent="KKgUo3WRALdvams5kwet-15">
          <mxGeometry y="350" width="200" height="42" as="geometry" />
        </mxCell>
        <mxCell id="KKgUo3WRALdvams5kwet-27" value="claimFees (claim locking fee from&#xa;fee distro)" style="text;align=left;verticalAlign=top;spacingLeft=4;spacingRight=4;overflow=hidden;rotatable=0;points=[[0,0.5],[1,0.5]];portConstraint=eastwest;fontStyle=0" vertex="1" parent="KKgUo3WRALdvams5kwet-15">
          <mxGeometry y="392" width="200" height="42" as="geometry" />
        </mxCell>
        <mxCell id="KKgUo3WRALdvams5kwet-28" value="Depostier functions" style="text;align=left;verticalAlign=top;spacingLeft=4;spacingRight=4;overflow=hidden;rotatable=0;points=[[0,0.5],[1,0.5]];portConstraint=eastwest;fontStyle=1" vertex="1" parent="KKgUo3WRALdvams5kwet-15">
          <mxGeometry y="434" width="200" height="28" as="geometry" />
        </mxCell>
        <mxCell id="KKgUo3WRALdvams5kwet-29" value="creatLock (cerat lock in the excrow &#xa;by depositing veAsset)" style="text;align=left;verticalAlign=top;spacingLeft=4;spacingRight=4;overflow=hidden;rotatable=0;points=[[0,0.5],[1,0.5]];portConstraint=eastwest;fontStyle=0" vertex="1" parent="KKgUo3WRALdvams5kwet-15">
          <mxGeometry y="462" width="200" height="42" as="geometry" />
        </mxCell>
        <mxCell id="KKgUo3WRALdvams5kwet-30" value="increaseAmount (deposit more veAsset t&#xa;o the escrow lock)" style="text;align=left;verticalAlign=top;spacingLeft=4;spacingRight=4;overflow=hidden;rotatable=0;points=[[0,0.5],[1,0.5]];portConstraint=eastwest;fontStyle=0" vertex="1" parent="KKgUo3WRALdvams5kwet-15">
          <mxGeometry y="504" width="200" height="42" as="geometry" />
        </mxCell>
        <mxCell id="KKgUo3WRALdvams5kwet-31" value="increaseTime (increase lock time)" style="text;align=left;verticalAlign=top;spacingLeft=4;spacingRight=4;overflow=hidden;rotatable=0;points=[[0,0.5],[1,0.5]];portConstraint=eastwest;fontStyle=0" vertex="1" parent="KKgUo3WRALdvams5kwet-15">
          <mxGeometry y="546" width="200" height="36" as="geometry" />
        </mxCell>
        <mxCell id="KKgUo3WRALdvams5kwet-32" value="increaseTime (increase lock time)" style="text;align=left;verticalAlign=top;spacingLeft=4;spacingRight=4;overflow=hidden;rotatable=0;points=[[0,0.5],[1,0.5]];portConstraint=eastwest;fontStyle=0" vertex="1" parent="KKgUo3WRALdvams5kwet-15">
          <mxGeometry y="582" width="200" height="30" as="geometry" />
        </mxCell>
        <mxCell id="KKgUo3WRALdvams5kwet-33" value="" style="endArrow=block;endSize=10;endFill=0;shadow=0;strokeWidth=1;rounded=0;edgeStyle=elbowEdgeStyle;elbow=vertical;entryX=0.5;entryY=0;entryDx=0;entryDy=0;exitX=0.429;exitY=1.04;exitDx=0;exitDy=0;exitPerimeter=0;" edge="1" parent="1" source="KKgUo3WRALdvams5kwet-12" target="KKgUo3WRALdvams5kwet-15">
          <mxGeometry width="160" relative="1" as="geometry">
            <mxPoint x="130" y="600" as="sourcePoint" />
            <mxPoint x="200" y="203" as="targetPoint" />
          </mxGeometry>
        </mxCell>
        <mxCell id="KKgUo3WRALdvams5kwet-34" value="Booster" style="swimlane;fontStyle=0;align=center;verticalAlign=top;childLayout=stackLayout;horizontal=1;startSize=26;horizontalStack=0;resizeParent=1;resizeLast=0;collapsible=1;marginBottom=0;rounded=0;shadow=0;strokeWidth=1;" vertex="1" parent="1">
          <mxGeometry x="508" y="80" width="262" height="1290" as="geometry">
            <mxRectangle x="550" y="140" width="160" height="26" as="alternateBounds" />
          </mxGeometry>
        </mxCell>
        <mxCell id="KKgUo3WRALdvams5kwet-35" value="staker (proxy)" style="text;align=left;verticalAlign=top;spacingLeft=4;spacingRight=4;overflow=hidden;rotatable=0;points=[[0,0.5],[1,0.5]];portConstraint=eastwest;" vertex="1" parent="KKgUo3WRALdvams5kwet-34">
          <mxGeometry y="26" width="262" height="26" as="geometry" />
        </mxCell>
        <mxCell id="KKgUo3WRALdvams5kwet-36" value="minter (vetoken minter)" style="text;align=left;verticalAlign=top;spacingLeft=4;spacingRight=4;overflow=hidden;rotatable=0;points=[[0,0.5],[1,0.5]];portConstraint=eastwest;rounded=0;shadow=0;html=0;" vertex="1" parent="KKgUo3WRALdvams5kwet-34">
          <mxGeometry y="52" width="262" height="26" as="geometry" />
        </mxCell>
        <mxCell id="KKgUo3WRALdvams5kwet-37" value="veAsset (crv, pickle...)" style="text;align=left;verticalAlign=top;spacingLeft=4;spacingRight=4;overflow=hidden;rotatable=0;points=[[0,0.5],[1,0.5]];portConstraint=eastwest;rounded=0;shadow=0;html=0;" vertex="1" parent="KKgUo3WRALdvams5kwet-34">
          <mxGeometry y="78" width="262" height="26" as="geometry" />
        </mxCell>
        <mxCell id="KKgUo3WRALdvams5kwet-38" value="feeDistro (veAsset fee distribution)" style="text;align=left;verticalAlign=top;spacingLeft=4;spacingRight=4;overflow=hidden;rotatable=0;points=[[0,0.5],[1,0.5]];portConstraint=eastwest;rounded=0;shadow=0;html=0;" vertex="1" parent="KKgUo3WRALdvams5kwet-34">
          <mxGeometry y="104" width="262" height="26" as="geometry" />
        </mxCell>
        <mxCell id="KKgUo3WRALdvams5kwet-39" value="voteOwnership" style="text;align=left;verticalAlign=top;spacingLeft=4;spacingRight=4;overflow=hidden;rotatable=0;points=[[0,0.5],[1,0.5]];portConstraint=eastwest;rounded=0;shadow=0;html=0;" vertex="1" parent="KKgUo3WRALdvams5kwet-34">
          <mxGeometry y="130" width="262" height="26" as="geometry" />
        </mxCell>
        <mxCell id="KKgUo3WRALdvams5kwet-40" value="voteParameter" style="text;align=left;verticalAlign=top;spacingLeft=4;spacingRight=4;overflow=hidden;rotatable=0;points=[[0,0.5],[1,0.5]];portConstraint=eastwest;rounded=0;shadow=0;html=0;" vertex="1" parent="KKgUo3WRALdvams5kwet-34">
          <mxGeometry y="156" width="262" height="26" as="geometry" />
        </mxCell>
        <mxCell id="KKgUo3WRALdvams5kwet-41" value="lockIncentive (share for ve3token reward)" style="text;align=left;verticalAlign=top;spacingLeft=4;spacingRight=4;overflow=hidden;rotatable=0;points=[[0,0.5],[1,0.5]];portConstraint=eastwest;rounded=0;shadow=0;html=0;" vertex="1" parent="KKgUo3WRALdvams5kwet-34">
          <mxGeometry y="182" width="262" height="26" as="geometry" />
        </mxCell>
        <mxCell id="KKgUo3WRALdvams5kwet-42" value="stakerIncentive (share for ve3d reward)" style="text;align=left;verticalAlign=top;spacingLeft=4;spacingRight=4;overflow=hidden;rotatable=0;points=[[0,0.5],[1,0.5]];portConstraint=eastwest;rounded=0;shadow=0;html=0;" vertex="1" parent="KKgUo3WRALdvams5kwet-34">
          <mxGeometry y="208" width="262" height="26" as="geometry" />
        </mxCell>
        <mxCell id="KKgUo3WRALdvams5kwet-43" value="stakerLockIncentive (share for xve3d reward)" style="text;align=left;verticalAlign=top;spacingLeft=4;spacingRight=4;overflow=hidden;rotatable=0;points=[[0,0.5],[1,0.5]];portConstraint=eastwest;rounded=0;shadow=0;html=0;" vertex="1" parent="KKgUo3WRALdvams5kwet-34">
          <mxGeometry y="234" width="262" height="26" as="geometry" />
        </mxCell>
        <mxCell id="KKgUo3WRALdvams5kwet-44" value="earmarkIncentive (share for the caller of the function)" style="text;align=left;verticalAlign=top;spacingLeft=4;spacingRight=4;overflow=hidden;rotatable=0;points=[[0,0.5],[1,0.5]];portConstraint=eastwest;rounded=0;shadow=0;html=0;" vertex="1" parent="KKgUo3WRALdvams5kwet-34">
          <mxGeometry y="260" width="262" height="26" as="geometry" />
        </mxCell>
        <mxCell id="KKgUo3WRALdvams5kwet-45" value="platformFee (share for paltform go to treasury)" style="text;align=left;verticalAlign=top;spacingLeft=4;spacingRight=4;overflow=hidden;rotatable=0;points=[[0,0.5],[1,0.5]];portConstraint=eastwest;rounded=0;shadow=0;html=0;" vertex="1" parent="KKgUo3WRALdvams5kwet-34">
          <mxGeometry y="286" width="262" height="26" as="geometry" />
        </mxCell>
        <mxCell id="KKgUo3WRALdvams5kwet-46" value="lockFeesIncentive  (share for ve3token &#xa;extra reward pool)" style="text;align=left;verticalAlign=top;spacingLeft=4;spacingRight=4;overflow=hidden;rotatable=0;points=[[0,0.5],[1,0.5]];portConstraint=eastwest;rounded=0;shadow=0;html=0;" vertex="1" parent="KKgUo3WRALdvams5kwet-34">
          <mxGeometry y="312" width="262" height="38" as="geometry" />
        </mxCell>
        <mxCell id="KKgUo3WRALdvams5kwet-47" value="stakerLockFeesIncentive; (share for xve3d &#xa;extra reward pool)&#xa;" style="text;align=left;verticalAlign=top;spacingLeft=4;spacingRight=4;overflow=hidden;rotatable=0;points=[[0,0.5],[1,0.5]];portConstraint=eastwest;rounded=0;shadow=0;html=0;" vertex="1" parent="KKgUo3WRALdvams5kwet-34">
          <mxGeometry y="350" width="262" height="42" as="geometry" />
        </mxCell>
        <mxCell id="KKgUo3WRALdvams5kwet-48" value="poolInfo (include the all info of lp pool)&#xa;lptoken (deposit token)&#xa;token (new token for each pool in exchange)&#xa;gauge (gauge address)&#xa;veAssetRewards (reward pool of staking &#xa;the new token)" style="text;align=left;verticalAlign=top;spacingLeft=4;spacingRight=4;overflow=hidden;rotatable=0;points=[[0,0.5],[1,0.5]];portConstraint=eastwest;rounded=0;shadow=0;html=0;" vertex="1" parent="KKgUo3WRALdvams5kwet-34">
          <mxGeometry y="392" width="262" height="98" as="geometry" />
        </mxCell>
        <mxCell id="KKgUo3WRALdvams5kwet-49" value="" style="line;html=1;strokeWidth=1;align=left;verticalAlign=middle;spacingTop=-1;spacingLeft=3;spacingRight=3;rotatable=0;labelPosition=right;points=[];portConstraint=eastwest;" vertex="1" parent="KKgUo3WRALdvams5kwet-34">
          <mxGeometry y="490" width="262" height="8" as="geometry" />
        </mxCell>
        <mxCell id="KKgUo3WRALdvams5kwet-50" value="configuration functions" style="text;whiteSpace=wrap;html=1;fontStyle=1" vertex="1" parent="KKgUo3WRALdvams5kwet-34">
          <mxGeometry y="498" width="262" height="32" as="geometry" />
        </mxCell>
        <mxCell id="KKgUo3WRALdvams5kwet-51" value="setFactories (set reward &#xa;factory , token factory , &#xa;stash factory)" style="text;align=left;verticalAlign=top;spacingLeft=4;spacingRight=4;overflow=hidden;rotatable=0;points=[[0,0.5],[1,0.5]];portConstraint=eastwest;" vertex="1" parent="KKgUo3WRALdvams5kwet-34">
          <mxGeometry y="530" width="262" height="58" as="geometry" />
        </mxCell>
        <mxCell id="KKgUo3WRALdvams5kwet-52" value="setRewardContracts (set&#xa;reward contracts (ve3token reward&#xa;, ve3d reward , xve3d reward) which&#xa;participate in share of rewards&#xa;from gauges)" style="text;align=left;verticalAlign=top;spacingLeft=4;spacingRight=4;overflow=hidden;rotatable=0;points=[[0,0.5],[1,0.5]];portConstraint=eastwest;" vertex="1" parent="KKgUo3WRALdvams5kwet-34">
          <mxGeometry y="588" width="262" height="90" as="geometry" />
        </mxCell>
        <mxCell id="KKgUo3WRALdvams5kwet-53" value="setFeeInfo (set extra reward pools &#xa;for ve3token reward, xve3d reward&#xa;in order to recieve fee reward (fee token) &#xa;from fee distro)" style="text;align=left;verticalAlign=top;spacingLeft=4;spacingRight=4;overflow=hidden;rotatable=0;points=[[0,0.5],[1,0.5]];portConstraint=eastwest;" vertex="1" parent="KKgUo3WRALdvams5kwet-34">
          <mxGeometry y="678" width="262" height="80" as="geometry" />
        </mxCell>
        <mxCell id="KKgUo3WRALdvams5kwet-54" value="setFees ( set share of gauges &#xa;reward for each reward&#xa;pool , the max share is 20%)" style="text;align=left;verticalAlign=top;spacingLeft=4;spacingRight=4;overflow=hidden;rotatable=0;points=[[0,0.5],[1,0.5]];portConstraint=eastwest;" vertex="1" parent="KKgUo3WRALdvams5kwet-34">
          <mxGeometry y="758" width="262" height="60" as="geometry" />
        </mxCell>
        <mxCell id="KKgUo3WRALdvams5kwet-55" value="setTreasury (set treasury address for &#xa;collect platform fee)" style="text;align=left;verticalAlign=top;spacingLeft=4;spacingRight=4;overflow=hidden;rotatable=0;points=[[0,0.5],[1,0.5]];portConstraint=eastwest;" vertex="1" parent="KKgUo3WRALdvams5kwet-34">
          <mxGeometry y="818" width="262" height="40" as="geometry" />
        </mxCell>
        <mxCell id="KKgUo3WRALdvams5kwet-56" value="addPool (create lp pools that allow users to&#xa;deposit lp token and get a new token &#xa;(created by token factory) in exchange )" style="text;align=left;verticalAlign=top;spacingLeft=4;spacingRight=4;overflow=hidden;rotatable=0;points=[[0,0.5],[1,0.5]];portConstraint=eastwest;" vertex="1" parent="KKgUo3WRALdvams5kwet-34">
          <mxGeometry y="858" width="262" height="62" as="geometry" />
        </mxCell>
        <mxCell id="KKgUo3WRALdvams5kwet-57" value="user functions" style="text;align=left;verticalAlign=top;spacingLeft=4;spacingRight=4;overflow=hidden;rotatable=0;points=[[0,0.5],[1,0.5]];portConstraint=eastwest;fontStyle=1" vertex="1" parent="KKgUo3WRALdvams5kwet-34">
          <mxGeometry y="920" width="262" height="30" as="geometry" />
        </mxCell>
        <mxCell id="KKgUo3WRALdvams5kwet-58" value="deposit (deposit lp token and get new token&#xa;it can be staked in lp reward pool)" style="text;align=left;verticalAlign=top;spacingLeft=4;spacingRight=4;overflow=hidden;rotatable=0;points=[[0,0.5],[1,0.5]];portConstraint=eastwest;fontStyle=0" vertex="1" parent="KKgUo3WRALdvams5kwet-34">
          <mxGeometry y="950" width="262" height="40" as="geometry" />
        </mxCell>
        <mxCell id="KKgUo3WRALdvams5kwet-59" value="withdraw (withdraw lp token and burn &#xa;the new token)" style="text;align=left;verticalAlign=top;spacingLeft=4;spacingRight=4;overflow=hidden;rotatable=0;points=[[0,0.5],[1,0.5]];portConstraint=eastwest;fontStyle=0" vertex="1" parent="KKgUo3WRALdvams5kwet-34">
          <mxGeometry y="990" width="262" height="40" as="geometry" />
        </mxCell>
        <mxCell id="KKgUo3WRALdvams5kwet-60" value="withdraw (withdraw lp token and burn &#xa;the new token)" style="text;align=left;verticalAlign=top;spacingLeft=4;spacingRight=4;overflow=hidden;rotatable=0;points=[[0,0.5],[1,0.5]];portConstraint=eastwest;fontStyle=0" vertex="1" parent="KKgUo3WRALdvams5kwet-34">
          <mxGeometry y="1030" width="262" height="50" as="geometry" />
        </mxCell>
        <mxCell id="KKgUo3WRALdvams5kwet-61" value="earmarkReward (claim rewards from gauages &#xa;by the proxy and distibutes them according to &#xa;the set fees, the caller also will get incentive &#xa;in order to enourage users to claim the rewards)" style="text;align=left;verticalAlign=top;spacingLeft=4;spacingRight=4;overflow=hidden;rotatable=0;points=[[0,0.5],[1,0.5]];portConstraint=eastwest;fontStyle=0" vertex="1" parent="KKgUo3WRALdvams5kwet-34">
          <mxGeometry y="1080" width="262" height="70" as="geometry" />
        </mxCell>
        <mxCell id="KKgUo3WRALdvams5kwet-62" value="earmarkFees (claim locking fees from fee &#xa;distro &#xa;by the proxy and distibutes them according to &#xa;setFeeInfo)" style="text;align=left;verticalAlign=top;spacingLeft=4;spacingRight=4;overflow=hidden;rotatable=0;points=[[0,0.5],[1,0.5]];portConstraint=eastwest;fontStyle=0" vertex="1" parent="KKgUo3WRALdvams5kwet-34">
          <mxGeometry y="1150" width="262" height="70" as="geometry" />
        </mxCell>
        <mxCell id="KKgUo3WRALdvams5kwet-63" value="rewardClaimed (callback from reward contract &#xa;when veAsset is received.in order to mint vetoken&#xa;as extra reward according weight of the project)" style="text;align=left;verticalAlign=top;spacingLeft=4;spacingRight=4;overflow=hidden;rotatable=0;points=[[0,0.5],[1,0.5]];portConstraint=eastwest;fontStyle=0" vertex="1" parent="KKgUo3WRALdvams5kwet-34">
          <mxGeometry y="1220" width="262" height="70" as="geometry" />
        </mxCell>
        <mxCell id="KKgUo3WRALdvams5kwet-64" value="escrow (veCrv, veDill)" style="swimlane;fontStyle=0;align=center;verticalAlign=top;childLayout=stackLayout;horizontal=1;startSize=26;horizontalStack=0;resizeParent=1;resizeLast=0;collapsible=1;marginBottom=0;rounded=0;shadow=0;strokeWidth=1;" vertex="1" parent="1">
          <mxGeometry x="40" y="1630" width="160" height="92" as="geometry">
            <mxRectangle x="130" y="380" width="160" height="26" as="alternateBounds" />
          </mxGeometry>
        </mxCell>
        <mxCell id="KKgUo3WRALdvams5kwet-65" value="" style="line;html=1;strokeWidth=1;align=left;verticalAlign=middle;spacingTop=-1;spacingLeft=3;spacingRight=3;rotatable=0;labelPosition=right;points=[];portConstraint=eastwest;" vertex="1" parent="KKgUo3WRALdvams5kwet-64">
          <mxGeometry y="26" width="160" height="8" as="geometry" />
        </mxCell>
        <mxCell id="KKgUo3WRALdvams5kwet-66" value="veAsset" style="text;html=1;strokeColor=none;fillColor=none;align=center;verticalAlign=middle;whiteSpace=wrap;rounded=0;" vertex="1" parent="1">
          <mxGeometry x="160" y="670" width="60" height="34" as="geometry" />
        </mxCell>
        <mxCell id="KKgUo3WRALdvams5kwet-67" style="edgeStyle=orthogonalEdgeStyle;rounded=0;orthogonalLoop=1;jettySize=auto;html=1;entryX=0.588;entryY=0.002;entryDx=0;entryDy=0;entryPerimeter=0;exitX=0;exitY=0.5;exitDx=0;exitDy=0;" edge="1" parent="1" source="KKgUo3WRALdvams5kwet-47" target="KKgUo3WRALdvams5kwet-15">
          <mxGeometry relative="1" as="geometry">
            <mxPoint x="410" y="480" as="sourcePoint" />
            <Array as="points">
              <mxPoint x="508" y="460" />
              <mxPoint x="439" y="460" />
              <mxPoint x="439" y="710" />
              <mxPoint x="288" y="710" />
            </Array>
          </mxGeometry>
        </mxCell>
        <mxCell id="KKgUo3WRALdvams5kwet-68" value="lp token" style="text;html=1;strokeColor=none;fillColor=none;align=center;verticalAlign=middle;whiteSpace=wrap;rounded=0;" vertex="1" parent="1">
          <mxGeometry x="330" y="680" width="60" height="34" as="geometry" />
        </mxCell>
        <mxCell id="KKgUo3WRALdvams5kwet-69" value="gauges" style="swimlane;fontStyle=0;align=center;verticalAlign=top;childLayout=stackLayout;horizontal=1;startSize=26;horizontalStack=0;resizeParent=1;resizeLast=0;collapsible=1;marginBottom=0;rounded=0;shadow=0;strokeWidth=1;" vertex="1" parent="1">
          <mxGeometry x="360" y="1630" width="160" height="92" as="geometry">
            <mxRectangle x="130" y="380" width="160" height="26" as="alternateBounds" />
          </mxGeometry>
        </mxCell>
        <mxCell id="KKgUo3WRALdvams5kwet-70" value="" style="line;html=1;strokeWidth=1;align=left;verticalAlign=middle;spacingTop=-1;spacingLeft=3;spacingRight=3;rotatable=0;labelPosition=right;points=[];portConstraint=eastwest;" vertex="1" parent="KKgUo3WRALdvams5kwet-69">
          <mxGeometry y="26" width="160" height="8" as="geometry" />
        </mxCell>
        <mxCell id="KKgUo3WRALdvams5kwet-71" value="veAsset" style="text;html=1;strokeColor=none;fillColor=none;align=center;verticalAlign=middle;whiteSpace=wrap;rounded=0;" vertex="1" parent="1">
          <mxGeometry x="150" y="1500" width="60" height="34" as="geometry" />
        </mxCell>
        <mxCell id="KKgUo3WRALdvams5kwet-72" value="lp token" style="text;html=1;strokeColor=none;fillColor=none;align=center;verticalAlign=middle;whiteSpace=wrap;rounded=0;" vertex="1" parent="1">
          <mxGeometry x="320" y="1490" width="60" height="44" as="geometry" />
        </mxCell>
      </root>
    </mxGraphModel>
  </diagram>
</mxfile>
